<?xml version="1.0" standalone="no"?>
<!DOCTYPE svg PUBLIC "-//W3C//DTD SVG 20010904//EN"
 "http://www.w3.org/TR/2001/REC-SVG-20010904/DTD/svg10.dtd">
<svg version="1.0" xmlns="http://www.w3.org/2000/svg"
 width="1181.000000pt" height="1181.000000pt" viewBox="0 0 1181.000000 1181.000000"
 preserveAspectRatio="xMidYMid meet">

<g transform="translate(0.000000,1181.000000) scale(0.100000,-0.100000)"
fill="#000000" stroke="none">
<path d="M6060 10800 c-730 -76 -1594 -591 -2440 -1456 -368 -375 -697 -780
-952 -1169 -191 -290 -222 -355 -170 -355 12 0 125 105 283 263 1033 1026
2078 1761 2799 1967 473 135 782 34 921 -303 43 -103 59 -192 59 -325 0 -473
-271 -1071 -665 -1468 -127 -128 -172 -155 -266 -162 -138 -10 -231 51 -301
196 -75 157 -174 487 -273 902 -53 224 -95 373 -109 388 -7 7 -20 10 -28 7
-22 -8 -26 -72 -32 -450 -9 -491 -65 -1072 -122 -1242 -61 -184 -232 -460
-403 -652 -84 -94 -311 -300 -666 -604 -381 -327 -405 -349 -405 -370 0 -26
10 -22 280 114 129 65 276 136 325 157 354 155 558 149 810 -21 136 -92 215
-195 339 -444 93 -185 135 -287 331 -793 252 -649 313 -783 791 -1745 525
-1056 911 -1753 1255 -2267 59 -87 75 -105 86 -94 3 3 -37 99 -90 213 -210
457 -368 871 -672 1768 -232 683 -372 1079 -540 1530 -222 595 -273 760 -355
1155 -63 301 -64 436 -4 675 69 275 167 531 302 795 82 160 133 242 253 405
421 577 609 848 742 1073 219 368 349 668 409 937 32 147 33 397 0 508 -28 97
-81 204 -140 282 -67 88 -236 252 -330 318 -171 122 -396 218 -587 251 -114
20 -324 27 -435 16z"/>
</g>
</svg>
